<svg xmlns="http://www.w3.org/2000/svg"  viewBox="0 0 64 64" width="64px" height="64px"><path fill="#f9e3ae" d="M31 9A22 22 0 1 0 31 53A22 22 0 1 0 31 9Z"/><path fill="#ffefca" d="M12.713 52.287c2.627 2.498 5.736 4.49 9.177 5.823L56 24v-6.426c-1.058-1.757-2.308-3.384-3.713-4.861L12.713 52.287zM10.763 50.237L50 11h-6L8.221 46.779C8.98 47.998 9.831 49.153 10.763 50.237zM7.795 43.205L41 10l-3-2L6.364 39.636C6.762 40.865 7.238 42.058 7.795 43.205z"/><path fill="#f6d397" d="M31,3C15.536,3,3,15.536,3,31s12.536,28,28,28s28-12.536,28-28S46.464,3,31,3z M31,53 C18.85,53,9,43.15,9,31S18.85,9,31,9c5.883,0,11.226,2.309,15.174,6.07c0.231,0.22,0.456,0.444,0.677,0.674 c0.258,0.268,0.51,0.543,0.755,0.825C50.966,20.432,53,25.478,53,31C53,43.15,43.15,53,31,53z"/><path fill="#fff8f8" d="M18.498 28.996L19.736 31.26 22 32.498 19.736 33.736 18.498 36 17.26 33.736 14.996 32.498 17.26 31.26zM43.419 20L44.274 21.564 45.838 22.419 44.274 23.274 43.419 24.838 42.564 23.274 41 22.419 42.564 21.564zM43.352 35.704L43.935 36.769 45 37.352 43.935 37.935 43.352 39 42.769 37.935 41.704 37.352 42.769 36.769z"/><path fill="#8d6c9f" d="M38.351,11.322c0.71,0.266,1.416,0.574,2.1,0.919c0.145,0.073,0.298,0.107,0.449,0.107 c0.365,0,0.718-0.201,0.894-0.55c0.249-0.492,0.051-1.094-0.442-1.343c-0.748-0.378-1.522-0.717-2.301-1.007 c-0.517-0.193-1.094,0.069-1.286,0.587C37.57,10.554,37.833,11.13,38.351,11.322z"/><path fill="#8d6c9f" d="M31,2C15.01,2,2,15.01,2,31s13.01,29,29,29s29-13.01,29-29S46.99,2,31,2z M31,58 C16.112,58,4,45.888,4,31S16.112,4,31,4s27,12.112,27,27S45.888,58,31,58z"/><path fill="#8d6c9f" d="M31 49c-.553 0-1 .447-1 1v2c0 .553.447 1 1 1s1-.447 1-1v-2C32 49.447 31.553 49 31 49zM37.013 49.077c-.143-.534-.691-.852-1.225-.707-.533.143-.85.691-.707 1.225l.518 1.932c.119.447.523.741.965.741.086 0 .173-.011.26-.034.533-.143.85-.691.707-1.225L37.013 49.077zM21.75 46.521c-.479-.276-1.09-.113-1.366.366l-1 1.731c-.276.479-.112 1.09.366 1.366.157.091.329.134.499.134.346 0 .682-.179.867-.5l1-1.731C22.393 47.409 22.229 46.798 21.75 46.521zM41.616 46.888c-.277-.479-.891-.643-1.366-.366-.479.276-.643.888-.366 1.366l1 1.731c.186.321.521.5.867.5.17 0 .342-.043.499-.134.479-.276.643-.888.366-1.366L41.616 46.888zM26.212 48.37c-.533-.144-1.082.173-1.225.707l-.518 1.932c-.143.533.174 1.082.707 1.225.087.023.174.034.26.034.441 0 .846-.294.965-.741l.518-1.932C27.062 49.062 26.745 48.513 26.212 48.37zM16.15 16.15c4.749-4.748 11.551-6.95 18.188-5.885.545.09 1.058-.283 1.146-.829.088-.545-.284-1.059-.829-1.146-7.271-1.165-14.717 1.245-19.918 6.445-8.967 8.968-8.967 23.56 0 32.527.195.195.451.293.707.293.256 0 .512-.098.707-.293.391-.391.391-1.023 0-1.414C7.963 37.661 7.963 24.339 16.15 16.15zM47.264 14.736c-.658-.658-1.362-1.282-2.095-1.855-.434-.342-1.062-.264-1.403.171s-.265 1.062.171 1.403c.668.523 1.312 1.094 1.913 1.695 8.188 8.188 8.188 21.511 0 29.699-.391.391-.391 1.023 0 1.414.195.195.451.293.707.293.256 0 .512-.098.707-.293C56.23 38.296 56.23 23.704 47.264 14.736z"/><path fill="#8d6c9f" d="M40,34c0-2.413-1.435-4.492-3.493-5.444C37.427,27.649,38,26.391,38,25v-2 c0-2.421-1.731-4.444-4.02-4.901C33.984,18.065,34,18.035,34,18v-2c0-0.553-0.447-1-1-1s-1,0.447-1,1v2h-2v-2c0-0.553-0.447-1-1-1 s-1,0.447-1,1v2h-3c-0.553,0-1,0.447-1,1v10v12c0,0.553,0.447,1,1,1h3v2c0,0.553,0.447,1,1,1s1-0.447,1-1v-2h2v2 c0,0.553,0.447,1,1,1s1-0.447,1-1v-2c3.309,0,6-2.691,6-6V34z M26,20h7c1.654,0,3,1.346,3,3v2c0,1.654-1.346,3-3,3h-7V20z M38,36 c0,2.206-1.794,4-4,4h-8V30h7h1c2.206,0,4,1.794,4,4V36z"/></svg>